<svg id="Calque_2" data-name="Calque 2" xmlns="http://www.w3.org/2000/svg" viewBox="0 0 201.28 201.28"><path d="M220.25,78.15c-.49-10.71-2.19-18-4.68-24.43a51.49,51.49,0,0,0-29.43-29.44c-6.41-2.48-13.72-4.18-24.43-4.67S147.54,19,120.21,19s-30.76.12-41.49.61-18,2.19-24.43,4.68a49.22,49.22,0,0,0-17.83,11.6A49.37,49.37,0,0,0,24.85,53.72c-2.48,6.4-4.19,13.72-4.67,24.43s-.61,14.16-.61,41.49.12,30.76.61,41.5,2.19,18,4.68,24.43a49.18,49.18,0,0,0,11.6,17.82A49.37,49.37,0,0,0,54.29,215c6.4,2.49,13.72,4.19,24.43,4.68s14.16.6,41.49.6,30.76-.11,41.5-.6,18-2.19,24.43-4.68a51.45,51.45,0,0,0,29.43-29.43c2.49-6.41,4.19-13.72,4.68-24.43s.6-14.16.6-41.5S220.74,88.88,220.25,78.15Zm-18.12,82.16c-.44,9.82-2.08,15.14-3.46,18.69a33.34,33.34,0,0,1-19.1,19.1c-3.55,1.38-8.88,3-18.69,3.47-10.61.48-13.79.58-40.67.58s-30.06-.1-40.67-.58c-9.81-.45-15.14-2.09-18.68-3.47A33.33,33.33,0,0,1,41.75,179c-1.37-3.55-3-8.87-3.46-18.69-.48-10.61-.59-13.79-.59-40.67s.11-30,.59-40.66c.45-9.82,2.09-15.15,3.46-18.69a31.25,31.25,0,0,1,7.53-11.57,31,31,0,0,1,11.58-7.53c3.54-1.38,8.87-3,18.68-3.47,10.62-.48,13.8-.58,40.67-.58h0c26.87,0,30.06.1,40.67.58,9.81.45,15.14,2.09,18.69,3.47a31.09,31.09,0,0,1,11.57,7.53,31.25,31.25,0,0,1,7.53,11.57c1.38,3.54,3,8.87,3.46,18.69.49,10.61.59,13.79.59,40.66S202.62,149.7,202.13,160.31Z" transform="translate(-19.57 -19)"/><polygon points="100.64 0 100.64 0 100.64 0 100.64 0"/><path d="M121.21,68a51.68,51.68,0,1,0,51.68,51.68A51.68,51.68,0,0,0,121.21,68Zm0,85.23a33.55,33.55,0,1,1,33.55-33.55A33.55,33.55,0,0,1,121.21,153.19Z" transform="translate(-19.57 -19)"/><circle cx="155.36" cy="46.92" r="12.08"/></svg>