<?xml version="1.0" encoding="UTF-8" standalone="no"?>
<!DOCTYPE svg PUBLIC "-//W3C//DTD SVG 1.1//EN" "http://www.w3.org/Graphics/SVG/1.1/DTD/svg11.dtd">
<svg width="100%" height="100%" viewBox="0 0 283 232" version="1.1" xmlns="http://www.w3.org/2000/svg" xmlns:xlink="http://www.w3.org/1999/xlink" xml:space="preserve" xmlns:serif="http://www.serif.com/" style="fill-rule:evenodd;clip-rule:evenodd;stroke-linejoin:round;stroke-miterlimit:2;">
    <g transform="matrix(1,0,0,1,-231.429,-180)">
        <path d="M360.134,378.592C360.046,378.744 360,378.917 360,379.092C360,381.862 360,405.277 360,410.429C360,410.694 359.895,410.948 359.707,411.136C359.52,411.323 359.265,411.429 359,411.429C354.898,411.429 339.387,411.429 335.286,411.429C335.021,411.429 334.766,411.323 334.579,411.136C334.391,410.948 334.286,410.694 334.286,410.429C334.286,405.277 334.286,381.862 334.286,379.092C334.286,378.917 334.24,378.744 334.152,378.592C332.501,375.733 316.051,347.241 310.437,337.518C310.211,337.126 309.75,336.935 309.313,337.052C308.875,337.169 308.571,337.565 308.571,338.018C308.571,352.248 308.571,402.688 308.571,410.429C308.571,410.694 308.466,410.948 308.279,411.136C308.091,411.323 307.837,411.429 307.571,411.429C303.47,411.429 287.959,411.429 283.857,411.429C283.592,411.429 283.338,411.323 283.15,411.136C282.962,410.948 282.857,410.694 282.857,410.429C282.857,397.636 282.857,266.012 282.857,242.051C282.857,241.598 283.161,241.202 283.598,241.085C284.036,240.968 284.497,241.159 284.723,241.551C294.482,258.454 339.463,336.362 346.277,348.165C346.455,348.474 346.786,348.665 347.143,348.665C347.5,348.665 347.83,348.474 348.009,348.165C354.823,336.362 399.803,258.454 409.563,241.551C409.789,241.159 410.25,240.968 410.687,241.085C411.125,241.202 411.429,241.598 411.429,242.051C411.429,251.602 411.429,276.554 411.429,281.857C411.429,282.122 411.534,282.377 411.721,282.564C411.909,282.752 412.163,282.857 412.429,282.857C416.53,282.857 432.041,282.857 436.143,282.857C436.695,282.857 437.143,282.409 437.143,281.857C437.143,271.913 437.143,190.944 437.143,181C437.143,180.448 437.591,180 438.143,180C442.245,180 457.755,180 461.857,180C462.122,180 462.377,180.105 462.564,180.293C462.752,180.48 462.857,180.735 462.857,181C462.857,192.325 462.857,296.246 462.857,307.571C462.857,307.837 462.752,308.091 462.564,308.279C462.377,308.466 462.122,308.571 461.857,308.571C454.347,308.571 406.92,308.571 401.138,308.571C400.781,308.571 400.45,308.762 400.272,309.071C398.534,312.081 389.445,327.823 386.58,332.786C386.402,333.095 386.402,333.476 386.58,333.786C386.759,334.095 387.089,334.286 387.446,334.286C398.02,334.286 453.692,334.286 461.857,334.286C462.122,334.286 462.377,334.391 462.564,334.579C462.752,334.766 462.857,335.021 462.857,335.286C462.857,343.663 462.857,402.051 462.857,410.429C462.857,410.694 462.752,410.948 462.564,411.136C462.377,411.323 462.122,411.429 461.857,411.429C457.755,411.429 442.245,411.429 438.143,411.429C437.878,411.429 437.623,411.323 437.436,411.136C437.248,410.948 437.143,410.694 437.143,410.429C437.143,403.909 437.143,367.519 437.143,361C437.143,360.448 436.695,360 436.143,360L371.445,360C371.088,360 370.758,360.191 370.579,360.5C368.981,363.268 361.249,376.662 360.134,378.592ZM257.143,181C257.143,180.735 257.037,180.48 256.85,180.293C256.662,180.105 256.408,180 256.143,180C252.041,180 236.53,180 232.429,180C232.163,180 231.909,180.105 231.721,180.293C231.534,180.48 231.429,180.735 231.429,181C231.429,196.796 231.429,394.633 231.429,410.429C231.429,410.694 231.534,410.948 231.721,411.136C231.909,411.323 232.163,411.429 232.429,411.429C236.53,411.429 252.041,411.429 256.143,411.429C256.408,411.429 256.662,411.323 256.85,411.136C257.037,410.948 257.143,410.694 257.143,410.429C257.143,394.633 257.143,196.796 257.143,181ZM488.571,181C488.571,180.735 488.677,180.48 488.864,180.293C489.052,180.105 489.306,180 489.571,180C493.673,180 509.184,180 513.286,180C513.551,180 513.805,180.105 513.993,180.293C514.18,180.48 514.286,180.735 514.286,181C514.286,196.796 514.286,394.633 514.286,410.429C514.286,410.694 514.18,410.948 513.993,411.136C513.805,411.323 513.551,411.429 513.286,411.429C509.184,411.429 493.673,411.429 489.571,411.429C489.306,411.429 489.052,411.323 488.864,411.136C488.677,410.948 488.571,410.694 488.571,410.429C488.571,394.633 488.571,196.796 488.571,181ZM346.277,245.308C346.455,245.617 346.786,245.808 347.143,245.808C347.5,245.808 347.83,245.617 348.009,245.308C353.399,235.972 382.226,186.042 385.426,180.5C385.604,180.191 385.934,180 386.292,180L413.675,180C414.032,180 414.362,180.191 414.541,180.5C414.719,180.809 414.719,181.191 414.541,181.5C407.191,194.23 355.359,284.006 348.009,296.736C347.83,297.046 347.5,297.236 347.143,297.236C346.786,297.236 346.455,297.046 346.277,296.736C338.927,284.006 287.095,194.23 279.745,181.5C279.567,181.191 279.567,180.809 279.745,180.5C279.924,180.191 280.254,180 280.611,180C286.341,180 304.519,180 307.994,180C308.351,180 308.681,180.191 308.86,180.5C312.06,186.042 340.887,235.972 346.277,245.308Z"/>
    </g>
</svg>
