<svg id="Calque_1" data-name="Calque 1" xmlns="http://www.w3.org/2000/svg" viewBox="0 0 232 200.65"><path d="M236.1,65.74q-1.54,33.87-47.31,92.74Q141.47,220,108.73,220q-20.3,0-34.32-37.45L55.69,113.86Q45.27,76.44,33.33,76.42q-2.59,0-18.21,10.92L4.21,73.28Q21.39,58.21,38.07,43.1,61,23.32,72.45,22.26q27.08-2.6,33.33,37,6.77,42.75,9.38,53.17,7.82,35.47,17.19,35.46,7.28,0,21.88-23t15.62-35Q171.94,70,154.23,70a43.36,43.36,0,0,0-17.17,3.8q17.1-56,65.33-54.44,35.76,1,33.71,46.38Z" transform="translate(-4.21 -19.32)"/></svg>